<svg width="64" height="111" viewBox="0 0 64 111" fill="none" xmlns="http://www.w3.org/2000/svg">
<rect x="1.5" y="1.5" width="60.5586" height="108" rx="30.2793" stroke="white" stroke-width="3"/>
<path d="M33.6367 27.9338C33.6367 27.1054 32.9651 26.4338 32.1367 26.4338C31.3083 26.4338 30.6367 27.1054 30.6367 27.9338H33.6367ZM31.0761 84.1269C31.6618 84.7127 32.6116 84.7127 33.1974 84.1269L42.7433 74.581C43.3291 73.9952 43.3291 73.0454 42.7433 72.4597C42.1575 71.8739 41.2078 71.8739 40.622 72.4597L32.1367 80.9449L23.6514 72.4597C23.0657 71.8739 22.1159 71.8739 21.5301 72.4597C20.9443 73.0454 20.9443 73.9952 21.5301 74.581L31.0761 84.1269ZM30.6367 27.9338L30.6367 83.0663H33.6367V27.9338H30.6367Z" fill="white"/>
</svg>
